# This file uses centimeters as units for non-parametric coordinates.

mtllib Rock_01.mtl
g default
v -54.940409 -55.676305 38.971382
v 40.700358 -45.827949 45.357242
v -49.230421 43.684217 41.564679
v 41.753663 51.906344 40.861352
v -54.367391 45.347279 -50.201646
v 44.465024 39.217959 -48.170138
v -53.289883 -45.487815 -46.857456
v 50.649366 -46.428442 -51.282116
v 41.596001 44.061576 -26.926144
v -45.898332 42.341018 -26.154579
v -62.888555 -52.680391 -26.340195
v 52.680391 -52.680391 -26.340195
v 36.066471 52.680391 0.000003
v -52.685477 52.674798 -0.031063
v -52.680391 -52.680391 0.000003
v 35.731854 -52.680391 0.000003
v 52.680391 52.680391 26.340195
v -45.888529 55.435059 26.092448
v -60.787389 -52.680391 26.340195
v 41.205932 -52.680391 26.340195
v 26.340195 52.680391 52.680391
v 26.340195 61.111701 26.340195
v 26.340195 50.451923 0.000003
v 26.340195 52.680391 -26.340195
v 24.002650 40.104525 -51.764554
v 26.340195 -52.680391 -60.379485
v 26.340195 -61.049805 -26.340195
v 26.340195 -61.049805 0.000003
v 26.340195 -52.680391 26.340195
v 26.340195 -52.680391 43.329313
v -0.000003 40.451749 56.822460
v -0.000003 67.147514 26.340195
v -0.000003 67.147514 0.000003
v -0.000003 50.892028 -26.340195
v 3.034105 40.675822 -58.432216
v -0.000003 -56.709081 -58.866227
v -0.000003 -61.049805 -26.340195
v -0.000003 -62.838347 0.000003
v -0.000003 -57.445454 26.340195
v -0.000003 -44.130040 49.263868
v -26.340195 40.451749 52.680391
v -33.282394 56.367606 27.172750
v -28.896560 68.857097 1.200261
v -24.510727 50.334562 -24.772234
v -26.340195 52.680391 -52.680391
v -26.340195 -56.856227 -52.680391
v -26.340195 -65.619322 -26.340195
v -26.340195 -61.049805 0.000003
v -26.340195 -52.680391 26.340195
v -26.340195 -52.680391 52.680391
v 52.619713 26.544072 35.692962
v 26.340195 13.358535 56.237661
v -0.000003 19.739765 64.702236
v -26.340195 26.340195 64.702236
v -50.371137 18.094312 54.542402
v -47.584711 26.340195 26.340195
v -47.584711 26.340195 0.000003
v -59.824591 26.340195 -26.340195
v -60.700053 26.340195 -57.678781
v -24.714309 31.366142 -73.228600
v -0.000003 26.340195 -65.629345
v 24.714307 21.314249 -55.997030
v 52.680391 26.340195 -52.680391
v 52.680391 26.340195 -26.340195
v 52.680391 26.340195 0.000003
v 52.680391 26.340195 26.340195
v 52.240304 1.055926 49.693994
v 26.340195 -0.000003 52.680391
v -0.000003 -6.600433 64.702236
v -26.340195 -0.000003 52.680391
v -50.371137 -4.660170 54.542402
v -63.308222 -0.000003 26.340195
v -47.584711 -0.000003 0.000003
v -60.882135 -0.000003 -26.340195
v -60.700053 -0.000003 -58.215349
v -26.340195 -0.000003 -67.125415
v -0.000003 -0.000003 -67.125415
v 26.340195 -0.000003 -67.125415
v 52.907425 -1.918122 -58.462681
v 63.031017 -0.000003 -26.340195
v 63.031017 -0.000003 0.000003
v 52.680391 -0.000003 26.340195
v 41.771266 -26.340195 34.363212
v 26.340195 -26.340195 52.680391
v -0.000003 -26.340195 65.853019
v -26.340195 -26.340195 59.667089
v -50.371137 -27.414642 54.542402
v -59.969778 -26.340195 26.340195
v -52.680391 -26.340195 0.000003
v -64.029912 -26.340195 -26.340195
v -52.680391 -26.340195 -52.680391
v -26.115824 -26.340195 -70.367247
v -0.000003 -26.340195 -66.936563
v 26.115824 -26.340195 -63.505872
v 52.680391 -26.340195 -52.680391
v 63.031017 -26.340195 -26.340195
v 52.680391 -26.340195 0.000003
v 52.680391 -26.340195 26.340195
vt 0.669553 0.623304
vt 0.650264 0.569777
vt 0.724407 0.569777
vt 0.724407 0.592356
vt 0.650264 0.495634
vt 0.724407 0.495634
vt 0.798546 0.569777
vt 0.801515 0.635513
vt 0.650264 0.421490
vt 0.724407 0.421490
vt 0.798546 0.495634
vt 0.872684 0.569777
vt 0.873264 0.596103
vt 0.667862 0.351285
vt 0.724407 0.347352
vt 0.798546 0.421490
vt 0.872684 0.495634
vt 0.946828 0.569777
vt 0.944649 0.610647
vt 0.793147 0.331076
vt 0.872684 0.421490
vt 0.946828 0.495634
vt 0.946828 0.643916
vt 0.836146 0.653932
vt 0.872684 0.347352
vt 0.922572 0.419843
vt 0.908932 0.360047
vt 0.059771 0.451222
vt 0.051338 0.415669
vt 0.130886 0.371840
vt 0.133912 0.451222
vt 0.194935 0.371840
vt 0.208053 0.451222
vt 0.059771 0.525363
vt 0.133912 0.525363
vt 0.258983 0.371840
vt 0.282194 0.451222
vt 0.208053 0.525363
vt 0.059771 0.599504
vt 0.133912 0.599504
vt 0.331013 0.408368
vt 0.364089 0.451919
vt 0.282194 0.525363
vt 0.208053 0.599504
vt 0.080014 0.657257
vt 0.133912 0.673645
vt 0.356320 0.525452
vt 0.282194 0.599504
vt 0.208053 0.689225
vt 0.327234 0.598983
vt 0.282194 0.687715
vt 0.335696 0.666668
vt 0.571594 0.321375
vt 0.571594 0.224414
vt 0.645737 0.224414
vt 0.607149 0.304918
vt 0.497453 0.298557
vt 0.497453 0.224414
vt 0.571594 0.150273
vt 0.636120 0.150273
vt 0.423312 0.327289
vt 0.423312 0.224414
vt 0.497453 0.150273
vt 0.571594 0.076132
vt 0.619414 0.076132
vt 0.365559 0.300271
vt 0.349171 0.224414
vt 0.423312 0.150273
vt 0.497453 0.076132
vt 0.571594 0.034289
vt 0.625123 0.035712
vt 0.331760 0.150273
vt 0.423312 0.076132
vt 0.497453 0.049696
vt 0.327499 0.076132
vt 0.423312 0.001991
vt 0.353107 0.007707
vt 0.043552 0.235549
vt 0.103754 0.231660
vt 0.098604 0.310214
vt 0.019715 0.303236
vt 0.024449 0.162020
vt 0.091408 0.158554
vt 0.172745 0.236075
vt 0.181286 0.326405
vt 0.103181 0.368052
vt 0.001889 0.324281
vt 0.043581 0.088486
vt 0.079063 0.085448
vt 0.172745 0.161932
vt 0.246886 0.236075
vt 0.240307 0.307637
vt 0.172745 0.346663
vt 0.034173 0.044936
vt 0.098604 0.013650
vt 0.172745 0.087788
vt 0.246886 0.161932
vt 0.289829 0.237722
vt 0.297903 0.297518
vt 0.172745 0.001991
vt 0.246886 0.087788
vt 0.274264 0.161932
vt 0.246886 0.013650
vt 0.321027 0.087788
vt 0.290271 0.046918
vt 0.001889 0.693011
vt 0.082393 0.701443
vt 0.082393 0.775586
vt 0.014751 0.772560
vt 0.156534 0.725511
vt 0.156534 0.775586
vt 0.082393 0.849727
vt 0.014751 0.836609
vt 0.230675 0.701443
vt 0.230675 0.775586
vt 0.156534 0.831148
vt 0.082393 0.923868
vt 0.014751 0.900657
vt 0.271095 0.720732
vt 0.274109 0.775586
vt 0.230675 0.849727
vt 0.156534 0.905289
vt 0.082393 0.963590
vt 0.017962 0.972686
vt 0.303577 0.852699
vt 0.230675 0.887327
vt 0.156534 0.963590
vt 0.304646 0.924443
vt 0.230675 0.998009
vt 0.558543 0.628285
vt 0.558543 0.553507
vt 0.644443 0.554136
vt 0.612443 0.629996
vt 0.484405 0.650854
vt 0.484405 0.554136
vt 0.558543 0.479998
vt 0.644030 0.479998
vt 0.410266 0.650854
vt 0.396115 0.549563
vt 0.484405 0.479998
vt 0.558543 0.406488
vt 0.632691 0.405859
vt 0.410266 0.479998
vt 0.484405 0.405859
vt 0.558543 0.331711
vt 0.615089 0.337434
vt 0.424407 0.410432
vt 0.489803 0.331081
vt 0.369907 0.471452
vt 0.371520 0.412438
vt 0.410266 0.331711
vt 0.374018 0.354840
vn -0.517769 -0.723841 0.456036
vn -0.077811 -0.745810 0.661598
vn -0.176913 -0.150897 0.972590
vn -0.602226 -0.125855 0.788342
vn -0.802960 0.463099 0.375227
vn -0.207575 0.670917 0.711887
vn -0.215938 0.875283 0.432725
vn -0.792415 0.551961 0.259648
vn -0.700158 -0.196735 -0.686349
vn -0.214089 -0.214836 -0.952896
vn -0.203258 -0.752048 -0.626985
vn -0.603612 -0.530018 -0.595595
vn -0.790485 -0.610179 0.053052
vn -0.035006 -0.988224 0.148955
vn 0.657924 -0.301489 0.690102
vn 0.759636 -0.644530 0.086800
vn 0.938622 -0.308405 0.154516
vn 0.725924 -0.226244 0.649499
vn -0.999956 -0.007401 -0.005803
vn -0.669774 0.739888 -0.063003
vn -0.119214 0.941979 -0.313789
vn -0.078053 0.914062 -0.397994
vn -0.567924 0.759751 -0.316606
vn -0.778117 -0.627308 -0.031911
vn -0.996682 -0.011465 0.080585
vn -0.160125 -0.981896 -0.101193
vn 0.970510 -0.240155 0.020885
vn 0.726456 -0.685386 0.050084
vn 0.621011 -0.566166 -0.542035
vn 0.742592 -0.150331 -0.652654
vn -0.843375 0.527521 -0.102179
vn -0.226171 0.956819 -0.182602
vn -0.681785 -0.719177 0.133991
vn -0.998161 0.047035 0.038234
vn -0.144989 -0.978294 0.148050
vn 0.919572 -0.341224 0.194816
vn 0.703241 -0.693552 0.156325
vn 0.280463 0.541655 0.792434
vn 0.604452 0.446923 0.659467
vn 0.803965 0.591619 -0.060228
vn 0.188828 0.971903 0.140530
vn 0.279291 0.938207 -0.204364
vn 0.628686 0.753171 -0.193616
vn 0.189853 0.941029 -0.280037
vn 0.659987 0.743305 -0.109157
vn 0.171050 0.748092 -0.641171
vn 0.513426 0.682100 -0.520705
vn 0.215481 -0.691959 -0.689029
vn 0.202158 -0.141153 -0.969127
vn 0.192862 -0.975292 -0.107749
vn 0.193967 -0.973598 0.120351
vn 0.126561 -0.962847 0.238555
vn 0.193876 -0.756103 0.625076
vn 0.386140 -0.242529 0.889986
vn 0.002679 0.591395 0.806377
vn -0.006847 0.942854 0.333136
vn 0.119385 0.970807 -0.208039
vn 0.121660 0.937765 -0.325262
vn 0.207372 0.784913 -0.583873
vn 0.035967 -0.749358 -0.661188
vn 0.029018 -0.167883 -0.985380
vn 0.056059 -0.992630 -0.107442
vn 0.021547 -0.990784 0.133724
vn 0.014375 -0.963455 0.267484
vn 0.103879 -0.731561 0.673816
vn 0.103207 -0.192895 0.975777
vn 0.380241 0.106954 0.918683
vn 0.795320 0.105206 0.596991
vn 0.050694 0.064712 0.996615
vn -0.221458 0.169015 0.960411
vn -0.717160 0.189892 0.670539
vn -0.990636 0.135149 -0.019396
vn -0.989487 0.107268 0.097005
vn -0.970541 0.153149 0.185998
vn -0.745984 0.213113 -0.630944
vn -0.112706 0.245794 -0.962748
vn 0.216820 0.250716 -0.943467
vn 0.208419 0.292432 -0.933298
vn 0.728597 0.367767 -0.577836
vn 0.918488 0.391748 -0.053973
vn 0.936365 0.349868 -0.028504
vn 0.982003 0.186407 0.030376
vn 0.404811 -0.052532 0.912890
vn 0.680531 -0.077063 0.728656
vn 0.045394 -0.013978 0.998871
vn -0.196093 -0.067187 0.978281
vn -0.673908 0.052432 0.736952
vn -0.989353 0.143615 -0.023581
vn -0.990338 0.126943 0.055824
vn -0.984875 0.018286 0.172299
vn -0.758206 -0.079585 -0.647140
vn -0.173039 -0.061146 -0.983015
vn 0.118232 0.033942 -0.992406
vn 0.201713 0.084613 -0.975783
vn 0.700432 0.084672 -0.708679
vn 0.991902 0.092464 -0.087063
vn 0.988353 0.050714 0.143478
vn 0.979627 -0.057271 0.192484
s 1
g pCube1
usemtl initialShadingGroup
f 1/106/1 50/107/2 86/108/3 87/109/4
f 3/94/5 41/95/6 42/89/7 18/88/8
f 91/130/9 92/131/10 46/132/11 7/133/12
f 19/53/13 49/54/14 50/55/2 1/56/1
f 2/1/15 20/2/16 98/3/17 83/4/18
f 19/28/13 1/29/1 87/30/4 88/31/19
f 10/78/20 44/79/21 45/80/22 5/81/23
f 7/45/12 11/39/24 90/40/25 91/46/9
f 7/66/12 46/67/11 47/62/26 11/61/24
f 96/10/27 12/9/28 8/14/29 95/15/30
f 14/82/31 43/83/32 44/79/21 10/78/20
f 11/39/24 15/34/33 89/35/34 90/40/25
f 11/61/24 47/62/26 48/58/35 15/57/33
f 97/6/36 16/5/37 12/9/28 96/10/27
f 18/88/8 42/89/7 43/83/32 14/82/31
f 15/34/33 19/28/13 88/31/19 89/35/34
f 15/57/33 48/58/35 49/54/14 19/53/13
f 98/3/17 20/2/16 16/5/37 97/6/36
f 21/103/38 4/105/39 17/104/40 22/101/41
f 23/97/42 22/101/41 17/104/40 13/102/43
f 24/91/44 23/97/42 13/102/43 9/98/45
f 25/92/46 24/91/44 9/98/45 6/99/47
f 26/142/48 94/141/49 95/145/30 8/146/29
f 27/73/50 26/75/48 8/77/29 12/76/28
f 28/69/51 27/73/50 12/76/28 16/74/37
f 29/64/52 28/69/51 16/74/37 20/70/16
f 30/65/53 29/64/52 20/70/16 2/71/15
f 84/115/54 30/114/53 2/119/15 83/120/18
f 31/100/55 21/103/38 22/101/41 32/96/56
f 33/90/57 32/96/56 22/101/41 23/97/42
f 34/84/58 33/90/57 23/97/42 24/91/44
f 35/85/59 34/84/58 24/91/44 25/92/46
f 36/137/60 93/136/61 94/141/49 26/142/48
f 37/68/62 36/72/60 26/75/48 27/73/50
f 38/63/63 37/68/62 27/73/50 28/69/51
f 39/59/64 38/63/63 28/69/51 29/64/52
f 40/60/65 39/59/64 29/64/52 30/65/53
f 85/111/66 40/110/65 30/114/53 84/115/54
f 41/95/6 31/100/55 32/96/56 42/89/7
f 43/83/32 42/89/7 32/96/56 33/90/57
f 44/79/21 43/83/32 33/90/57 34/84/58
f 45/80/22 44/79/21 34/84/58 35/85/59
f 46/132/11 92/131/10 93/136/61 36/137/60
f 47/62/26 46/67/11 36/72/60 37/68/62
f 48/58/35 47/62/26 37/68/62 38/63/63
f 49/54/14 48/58/35 38/63/63 39/59/64
f 50/55/2 49/54/14 39/59/64 40/60/65
f 86/108/3 50/107/2 40/110/65 85/111/66
f 21/23/38 52/24/67 51/13/68 4/19/39
f 31/127/55 53/122/69 52/126/67 21/129/38
f 41/123/6 54/117/70 53/122/69 31/127/55
f 55/118/71 54/117/70 41/123/6 3/124/5
f 56/37/72 55/36/71 3/41/5 18/42/8
f 57/43/73 56/37/72 18/42/8 14/47/31
f 58/48/74 57/43/73 14/47/31 10/50/20
f 59/51/75 58/48/74 10/50/20 5/52/23
f 5/81/23 45/80/22 60/86/76 59/87/75
f 61/93/77 60/86/76 45/80/22 35/85/59
f 62/147/78 61/143/77 35/149/59 25/150/46
f 63/151/79 62/147/78 25/150/46 6/152/47
f 9/26/45 64/21/80 63/25/79 6/27/47
f 13/22/43 65/17/81 64/21/80 9/26/45
f 17/18/40 66/12/82 65/17/81 13/22/43
f 51/13/68 66/12/82 17/18/40 4/19/39
f 52/126/67 68/121/83 67/125/84 51/128/68
f 53/122/69 69/116/85 68/121/83 52/126/67
f 54/117/70 70/112/86 69/116/85 53/122/69
f 71/113/87 70/112/86 54/117/70 55/118/71
f 72/33/88 71/32/87 55/36/71 56/37/72
f 73/38/89 72/33/88 56/37/72 57/43/73
f 74/44/90 73/38/89 57/43/73 58/48/74
f 75/49/91 74/44/90 58/48/74 59/51/75
f 59/138/75 60/139/76 76/135/92 75/134/91
f 77/140/93 76/135/92 60/139/76 61/143/77
f 78/144/94 77/140/93 61/143/77 62/147/78
f 79/148/95 78/144/94 62/147/78 63/151/79
f 64/21/80 80/16/96 79/20/95 63/25/79
f 65/17/81 81/11/97 80/16/96 64/21/80
f 66/12/82 82/7/98 81/11/97 65/17/81
f 67/8/84 82/7/98 66/12/82 51/13/68
f 68/121/83 84/115/54 83/120/18 67/125/84
f 69/116/85 85/111/66 84/115/54 68/121/83
f 70/112/86 86/108/3 85/111/66 69/116/85
f 87/109/4 86/108/3 70/112/86 71/113/87
f 88/31/19 87/30/4 71/32/87 72/33/88
f 89/35/34 88/31/19 72/33/88 73/38/89
f 90/40/25 89/35/34 73/38/89 74/44/90
f 91/46/9 90/40/25 74/44/90 75/49/91
f 75/134/91 76/135/92 92/131/10 91/130/9
f 93/136/61 92/131/10 76/135/92 77/140/93
f 94/141/49 93/136/61 77/140/93 78/144/94
f 95/145/30 94/141/49 78/144/94 79/148/95
f 80/16/96 96/10/27 95/15/30 79/20/95
f 81/11/97 97/6/36 96/10/27 80/16/96
f 82/7/98 98/3/17 97/6/36 81/11/97
f 83/4/18 98/3/17 82/7/98 67/8/84
