# This file uses centimeters as units for non-parametric coordinates.

mtllib fence1.mtl
g default
v 21.168079 0.000004 7.511330
v 40.485077 0.000004 7.511330
v 14.795103 91.375107 9.062160
v 46.858055 91.375107 9.062160
v 14.795103 91.375107 -5.953837
v 46.858055 91.375107 -5.953837
v 21.168079 0.000004 -4.403007
v 40.485077 0.000004 -4.403007
v 26.783440 112.257172 9.062160
v 34.869717 112.257172 9.062160
v 34.869717 112.257172 -5.953837
v 26.783440 112.257172 -5.953837
v -0.009430 63.602684 19.566280
v 164.141266 63.602684 19.566280
v -0.009430 79.582672 19.566280
v 164.141266 79.582672 19.566280
v 0.000000 79.582672 9.415807
v 164.150696 79.582672 9.415807
v 0.000000 63.602684 9.415807
v 164.150696 63.602684 9.415807
v -0.009430 26.714451 19.566280
v 164.141266 26.714451 19.566280
v -0.009430 42.694439 19.566280
v 164.141266 42.694439 19.566280
v 0.000000 42.694439 9.415807
v 164.150696 42.694439 9.415807
v 0.000000 26.714451 9.415807
v 164.150696 26.714451 9.415807
v 72.921822 0.000004 8.883759
v 95.054428 0.000004 8.883759
v 65.619934 104.693764 10.660636
v 102.356316 104.693764 10.660636
v 65.619934 104.693764 -6.544064
v 102.356316 104.693764 -6.544064
v 72.921822 0.000004 -4.767188
v 95.054428 0.000004 -4.767188
v 79.355667 128.619553 10.660636
v 88.620583 128.619553 10.660636
v 88.620583 128.619553 -6.544064
v 79.355667 128.619553 -6.544064
v 123.430496 0.000004 7.874704
v 143.492981 0.000004 7.874704
v 116.811577 94.901451 9.485385
v 150.111908 94.901451 9.485385
v 116.811577 94.901451 -6.110110
v 150.111908 94.901451 -6.110110
v 123.430496 0.000004 -4.499430
v 143.492981 0.000004 -4.499430
v 129.262573 116.589401 9.485385
v 137.660919 116.589401 9.485385
v 137.660919 116.589401 -6.110110
v 129.262573 116.589401 -6.110110
vt 0.353413 0.122438
vt 0.440413 0.115530
vt 0.504016 0.695364
vt 0.402237 0.703974
vt 0.268007 0.841749
vt 0.315902 0.841818
vt 0.312505 0.918547
vt 0.271182 0.918488
vt 0.143656 0.116357
vt 0.229338 0.122438
vt 0.231127 0.047270
vt 0.352999 0.047270
vt 0.181780 0.703621
vt 0.080170 0.694527
vt 0.516998 0.852348
vt 0.418709 0.861468
vt 0.181780 0.703621
vt 0.402237 0.703974
vt 0.353413 0.122438
vt 0.229338 0.122438
vt 0.265210 0.839546
vt 0.316865 0.839546
vt 0.164523 0.860761
vt 0.066487 0.851256
vt 0.641127 0.920912
vt 0.641078 0.077089
vt 0.723877 0.077089
vt 0.723926 0.920912
vt 0.771793 0.077089
vt 0.771840 0.920912
vt 0.852305 0.077090
vt 0.852351 0.920912
vt 0.593211 0.920912
vt 0.593164 0.077090
vt 0.640565 0.023788
vt 0.724462 0.023865
vt 0.640542 0.974037
vt 0.724439 0.974114
vt 0.641127 0.920912
vt 0.641078 0.077089
vt 0.723877 0.077089
vt 0.723927 0.920912
vt 0.771793 0.077089
vt 0.771840 0.920912
vt 0.852305 0.077089
vt 0.852351 0.920912
vt 0.593211 0.920912
vt 0.593164 0.077089
vt 0.640565 0.023788
vt 0.724462 0.023865
vt 0.640542 0.974037
vt 0.724439 0.974114
vt 0.229338 0.122438
vt 0.353413 0.122438
vt 0.402237 0.703974
vt 0.181780 0.703621
vt 0.268007 0.841749
vt 0.315901 0.841818
vt 0.312505 0.918547
vt 0.271182 0.918488
vt 0.181780 0.703621
vt 0.402237 0.703974
vt 0.353413 0.122438
vt 0.229338 0.122438
vt 0.231127 0.047270
vt 0.352999 0.047270
vt 0.440412 0.115531
vt 0.504016 0.695364
vt 0.143656 0.116357
vt 0.080170 0.694527
vt 0.516998 0.852348
vt 0.418709 0.861468
vt 0.265210 0.839546
vt 0.316866 0.839546
vt 0.164523 0.860761
vt 0.066487 0.851256
vt 0.229338 0.122438
vt 0.353413 0.122438
vt 0.402237 0.703974
vt 0.181780 0.703621
vt 0.268007 0.841749
vt 0.315901 0.841818
vt 0.312505 0.918547
vt 0.271182 0.918488
vt 0.181780 0.703621
vt 0.402237 0.703974
vt 0.353413 0.122438
vt 0.229338 0.122438
vt 0.231127 0.047270
vt 0.352999 0.047270
vt 0.440412 0.115531
vt 0.504016 0.695364
vt 0.143656 0.116357
vt 0.080170 0.694527
vt 0.516998 0.852348
vt 0.418709 0.861468
vt 0.265210 0.839546
vt 0.316866 0.839546
vt 0.164523 0.860761
vt 0.066487 0.851256
vn 0.000000 -0.016970 0.999856
vn 0.000000 -0.016970 0.999856
vn 0.000000 -0.016970 0.999856
vn 0.000000 -0.016970 0.999856
vn 0.000000 1.000000 0.000000
vn 0.000000 1.000000 0.000000
vn 0.000000 1.000000 0.000000
vn 0.000000 1.000000 0.000000
vn 0.000000 -0.016970 -0.999856
vn 0.000000 -0.016970 -0.999856
vn 0.000000 -0.016970 -0.999856
vn 0.000000 -0.016970 -0.999856
vn 0.000000 -1.000000 0.000000
vn 0.000000 -1.000000 0.000000
vn 0.000000 -1.000000 0.000000
vn 0.000000 -1.000000 0.000000
vn 0.997577 -0.069576 0.000000
vn 0.997577 -0.069576 0.000000
vn 0.997577 -0.069576 0.000000
vn 0.997577 -0.069576 0.000000
vn -0.997577 -0.069576 0.000000
vn -0.997577 -0.069576 0.000000
vn -0.997577 -0.069576 0.000000
vn -0.997577 -0.069576 0.000000
vn 0.000000 0.000000 1.000000
vn 0.000000 0.000000 1.000000
vn 0.000000 0.000000 1.000000
vn 0.000000 0.000000 1.000000
vn 0.867244 0.497883 0.000000
vn 0.867244 0.497883 0.000000
vn 0.867244 0.497883 0.000000
vn 0.867244 0.497883 0.000000
vn 0.000000 0.000000 -1.000000
vn 0.000000 0.000000 -1.000000
vn 0.000000 0.000000 -1.000000
vn 0.000000 0.000000 -1.000000
vn -0.867244 0.497883 0.000000
vn -0.867244 0.497883 0.000000
vn -0.867244 0.497883 0.000000
vn -0.867244 0.497883 0.000000
vn 0.000000 0.000000 1.000000
vn 0.000000 0.000000 1.000000
vn 0.000000 0.000000 1.000000
vn 0.000000 0.000000 1.000000
vn 0.000000 1.000000 0.000000
vn 0.000000 1.000000 0.000000
vn 0.000000 1.000000 0.000000
vn 0.000000 1.000000 0.000000
vn 0.000000 0.000000 -1.000000
vn 0.000000 0.000000 -1.000000
vn 0.000000 0.000000 -1.000000
vn 0.000000 0.000000 -1.000000
vn 0.000000 -1.000000 -0.000000
vn 0.000000 -1.000000 -0.000000
vn 0.000000 -1.000000 -0.000000
vn 0.000000 -1.000000 -0.000000
vn 1.000000 0.000000 0.000929
vn 1.000000 0.000000 0.000929
vn 1.000000 0.000000 0.000929
vn 1.000000 0.000000 0.000929
vn -1.000000 0.000000 -0.000929
vn -1.000000 0.000000 -0.000929
vn -1.000000 0.000000 -0.000929
vn -1.000000 0.000000 -0.000929
vn 0.000000 0.000000 1.000000
vn 0.000000 0.000000 1.000000
vn 0.000000 0.000000 1.000000
vn 0.000000 0.000000 1.000000
vn 0.000000 1.000000 -0.000000
vn 0.000000 1.000000 -0.000000
vn 0.000000 1.000000 -0.000000
vn 0.000000 1.000000 -0.000000
vn 0.000000 0.000000 -1.000000
vn 0.000000 0.000000 -1.000000
vn 0.000000 0.000000 -1.000000
vn 0.000000 0.000000 -1.000000
vn 0.000000 -1.000000 0.000000
vn 0.000000 -1.000000 0.000000
vn 0.000000 -1.000000 0.000000
vn 0.000000 -1.000000 0.000000
vn 1.000000 0.000000 0.000929
vn 1.000000 0.000000 0.000929
vn 1.000000 0.000000 0.000929
vn 1.000000 0.000000 0.000929
vn -1.000000 0.000000 -0.000929
vn -1.000000 0.000000 -0.000929
vn -1.000000 0.000000 -0.000929
vn -1.000000 0.000000 -0.000929
vn 0.000000 -0.016970 0.999856
vn 0.000000 -0.016970 0.999856
vn 0.000000 -0.016970 0.999856
vn 0.000000 -0.016970 0.999856
vn 0.000000 1.000000 0.000000
vn 0.000000 1.000000 0.000000
vn 0.000000 1.000000 0.000000
vn 0.000000 1.000000 0.000000
vn 0.000000 -0.016970 -0.999856
vn 0.000000 -0.016970 -0.999856
vn 0.000000 -0.016970 -0.999856
vn 0.000000 -0.016970 -0.999856
vn 0.000000 -1.000000 0.000000
vn 0.000000 -1.000000 0.000000
vn 0.000000 -1.000000 0.000000
vn 0.000000 -1.000000 0.000000
vn 0.997577 -0.069576 0.000000
vn 0.997577 -0.069576 0.000000
vn 0.997577 -0.069576 0.000000
vn 0.997577 -0.069576 0.000000
vn -0.997577 -0.069576 0.000000
vn -0.997577 -0.069576 0.000000
vn -0.997577 -0.069576 0.000000
vn -0.997577 -0.069576 0.000000
vn 0.000000 0.000000 1.000000
vn 0.000000 0.000000 1.000000
vn 0.000000 0.000000 1.000000
vn 0.000000 0.000000 1.000000
vn 0.867244 0.497883 0.000000
vn 0.867244 0.497883 0.000000
vn 0.867244 0.497883 0.000000
vn 0.867244 0.497883 0.000000
vn 0.000000 0.000000 -1.000000
vn 0.000000 0.000000 -1.000000
vn 0.000000 0.000000 -1.000000
vn 0.000000 0.000000 -1.000000
vn -0.867244 0.497883 0.000000
vn -0.867244 0.497883 0.000000
vn -0.867244 0.497883 0.000000
vn -0.867244 0.497883 0.000000
vn 0.000000 -0.016970 0.999856
vn 0.000000 -0.016970 0.999856
vn 0.000000 -0.016970 0.999856
vn 0.000000 -0.016970 0.999856
vn 0.000000 1.000000 0.000000
vn 0.000000 1.000000 0.000000
vn 0.000000 1.000000 0.000000
vn 0.000000 1.000000 0.000000
vn 0.000000 -0.016970 -0.999856
vn 0.000000 -0.016970 -0.999856
vn 0.000000 -0.016970 -0.999856
vn 0.000000 -0.016970 -0.999856
vn 0.000000 -1.000000 0.000000
vn 0.000000 -1.000000 0.000000
vn 0.000000 -1.000000 0.000000
vn 0.000000 -1.000000 0.000000
vn 0.997577 -0.069576 0.000000
vn 0.997577 -0.069576 0.000000
vn 0.997577 -0.069576 0.000000
vn 0.997577 -0.069576 0.000000
vn -0.997577 -0.069576 0.000000
vn -0.997577 -0.069576 0.000000
vn -0.997577 -0.069576 0.000000
vn -0.997577 -0.069576 0.000000
vn 0.000000 0.000000 1.000000
vn 0.000000 0.000000 1.000000
vn 0.000000 0.000000 1.000000
vn 0.000000 0.000000 1.000000
vn 0.867244 0.497883 0.000000
vn 0.867244 0.497883 0.000000
vn 0.867244 0.497883 0.000000
vn 0.867244 0.497883 0.000000
vn 0.000000 0.000000 -1.000000
vn 0.000000 0.000000 -1.000000
vn 0.000000 0.000000 -1.000000
vn 0.000000 0.000000 -1.000000
vn -0.867244 0.497883 0.000000
vn -0.867244 0.497883 0.000000
vn -0.867244 0.497883 0.000000
vn -0.867244 0.497883 0.000000
s off
g fence1
usemtl initialShadingGroup
f 1/10/1 2/1/2 4/4/3 3/13/4
f 9/5/5 10/6/6 11/7/7 12/8/8
f 5/17/9 6/18/10 8/19/11 7/20/12
f 7/11/13 8/12/14 2/1/15 1/10/16
f 2/1/17 8/2/18 6/3/19 4/4/20
f 7/9/21 1/10/22 3/13/23 5/14/24
f 3/13/25 4/4/26 10/6/27 9/5/28
f 4/4/29 6/3/30 11/15/31 10/16/32
f 6/18/33 5/17/34 12/21/35 11/22/36
f 5/14/37 3/13/38 9/23/39 12/24/40
f 13/25/41 14/26/42 16/27/43 15/28/44
f 15/28/45 16/27/46 18/29/47 17/30/48
f 17/30/49 18/29/50 20/31/51 19/32/52
f 19/33/53 20/34/54 14/26/55 13/25/56
f 14/26/57 20/35/58 18/36/59 16/27/60
f 19/37/61 13/25/62 15/28/63 17/38/64
f 21/39/65 22/40/66 24/41/67 23/42/68
f 23/42/69 24/41/70 26/43/71 25/44/72
f 25/44/73 26/43/74 28/45/75 27/46/76
f 27/47/77 28/48/78 22/40/79 21/39/80
f 22/40/81 28/49/82 26/50/83 24/41/84
f 27/51/85 21/39/86 23/42/87 25/52/88
f 29/53/89 30/54/90 32/55/91 31/56/92
f 37/57/93 38/58/94 39/59/95 40/60/96
f 33/61/97 34/62/98 36/63/99 35/64/100
f 35/65/101 36/66/102 30/54/103 29/53/104
f 30/54/105 36/67/106 34/68/107 32/55/108
f 35/69/109 29/53/110 31/56/111 33/70/112
f 31/56/113 32/55/114 38/58/115 37/57/116
f 32/55/117 34/68/118 39/71/119 38/72/120
f 34/62/121 33/61/122 40/73/123 39/74/124
f 33/70/125 31/56/126 37/75/127 40/76/128
f 41/77/129 42/78/130 44/79/131 43/80/132
f 49/81/133 50/82/134 51/83/135 52/84/136
f 45/85/137 46/86/138 48/87/139 47/88/140
f 47/89/141 48/90/142 42/78/143 41/77/144
f 42/78/145 48/91/146 46/92/147 44/79/148
f 47/93/149 41/77/150 43/80/151 45/94/152
f 43/80/153 44/79/154 50/82/155 49/81/156
f 44/79/157 46/92/158 51/95/159 50/96/160
f 46/86/161 45/85/162 52/97/163 51/98/164
f 45/94/165 43/80/166 49/99/167 52/100/168
